grf
version=1
nRows=7
nColumns=37
inDegrees=no
endheader
time	ground_force_1_vx	ground_force_1_vy	ground_force_1_vz	ground_force_1_px	ground_force_1_py	ground_force_1_pz	ground_moment_1_mx	ground_moment_1_my	ground_moment_1_mz	ground_force_2_vx	ground_force_2_vy	ground_force_2_vz	ground_force_2_px	ground_force_2_py	ground_force_2_pz	ground_moment_2_mx	ground_moment_2_my	ground_moment_2_mz	ground_force_3_vx	ground_force_3_vy	ground_force_3_vz	ground_force_3_px	ground_force_3_py	ground_force_3_pz	ground_moment_3_mx	ground_moment_3_my	ground_moment_3_mz	ground_force_4_vx	ground_force_4_vy	ground_force_4_vz	ground_force_4_px	ground_force_4_py	ground_force_4_pz	ground_moment_4_mx	ground_moment_4_my	ground_moment_4_mz
      3.96000000	      0.00000000	     -0.00000000	      0.00000000	      0.00000000	      0.00000000	      0.00000000	      0.00000000	      0.00000000	      0.00000000	      5.57854557	     71.76578522	   -441.49783325	   -277.89039263	  -1207.80970921	      0.00000000	      0.00000000	      0.00000000	   3357.62368533	     -2.62001470	    -74.05471016	   -448.65985107	   -271.53532741	   -581.87214178	      0.00000000	      0.00000000	     -0.00000000	  -6876.44840853	      0.00000000	     -0.00000000	      0.00000000	      0.00000000	      0.00000000	      0.00000000	      0.00000000	      0.00000000	      0.00000000
      3.97000000	      0.00000000	     -0.00000000	      0.00000000	      0.00000000	      0.00000000	      0.00000000	      0.00000000	      0.00000000	      0.00000000	      6.12414455	     71.41405487	   -442.88763428	   -277.84589909	  -1207.82192961	      0.00000000	     -0.00000000	      0.00000000	   3477.80568185	     -2.62477519	    -73.80574776	   -446.93472290	   -271.19860506	   -582.24285331	      0.00000000	      0.00000000	     -0.00000000	  -6851.83316430	      0.00000000	     -0.00000000	      0.00000000	      0.00000000	      0.00000000	      0.00000000	      0.00000000	      0.00000000	      0.00000000
      3.98000000	      0.00000000	     -0.00000000	      0.00000000	      0.00000000	      0.00000000	      0.00000000	      0.00000000	      0.00000000	      0.00000000	      6.66385269	     71.78824615	   -441.88977051	   -278.45520214	  -1207.76281485	      0.00000000	      0.00000000	      0.00000000	   3348.52964630	     -2.65030599	    -73.71767402	   -448.24951172	   -271.07121842	   -581.79499934	      0.00000000	      0.00000000	     -0.00000000	  -6867.33672190	      0.00000000	     -0.00000000	      0.00000000	      0.00000000	      0.00000000	      0.00000000	      0.00000000	      0.00000000	      0.00000000
      3.99000000	      0.00000000	     -0.00000000	      0.00000000	      0.00000000	      0.00000000	      0.00000000	      0.00000000	      0.00000000	      0.00000000	      7.07852411	     71.70367432	   -441.10800171	   -278.34550793	  -1208.63136223	      0.00000000	      0.00000000	      0.00000000	   3434.96847142	     -2.61886809	    -73.39532448	   -446.91406250	   -271.60931140	   -581.65942037	      0.00000000	      0.00000000	     -0.00000000	  -6965.79933969	      0.00000000	     -0.00000000	      0.00000000	      0.00000000	      0.00000000	      0.00000000	      0.00000000	      0.00000000	      0.00000000
      4.00000000	      0.00000000	     -0.00000000	      0.00000000	      0.00000000	      0.00000000	      0.00000000	      0.00000000	      0.00000000	      0.00000000	      6.84137774	     71.94642639	   -441.57379150	   -278.28352153	  -1207.89163723	      0.00000000	      0.00000000	      0.00000000	   3396.77475161	     -3.20890928	    -73.70286532	   -446.96185303	   -272.07546940	   -581.40827359	      0.00000000	      0.00000000	     -0.00000000	  -7018.33766584	      0.00000000	     -0.00000000	      0.00000000	      0.00000000	      0.00000000	      0.00000000	      0.00000000	      0.00000000	      0.00000000
      4.01000000	      0.00000000	     -0.00000000	      0.00000000	      0.00000000	      0.00000000	      0.00000000	      0.00000000	      0.00000000	      0.00000000	      6.79520273	     72.96540833	   -442.76724243	   -278.96541147	  -1208.19386430	      0.00000000	      0.00000000	      0.00000000	   3295.24261319	     -2.57261920	    -73.63239266	   -447.61236572	   -272.38551557	   -581.36216447	      0.00000000	      0.00000000	     -0.00000000	  -6939.96703494	      0.00000000	     -0.00000000	      0.00000000	      0.00000000	      0.00000000	      0.00000000	      0.00000000	      0.00000000	      0.00000000
      4.02000000	      0.00000000	     -0.00000000	      0.00000000	      0.00000000	      0.00000000	      0.00000000	      0.00000000	      0.00000000	      0.00000000	      6.20077085	     73.13213348	   -441.94244385	   -278.94113856	  -1208.10511996	      0.00000000	     -0.00000000	      0.00000000	   3483.25384432	     -2.35164666	    -73.55697611	   -446.62417603	   -272.38259374	   -581.39624434	      0.00000000	      0.00000000	     -0.00000000	  -7029.11304551	      0.00000000	     -0.00000000	      0.00000000	      0.00000000	      0.00000000	      0.00000000	      0.00000000	      0.00000000	      0.00000000
